<svg width="109" height="27" viewBox="0 0 109 27" fill="none" xmlns="http://www.w3.org/2000/svg">
<g clip-path="url(#clip0_276_3256)">
<path d="M100.012 13.4932L96.7341 5.1781H91.25L97.6102 18.8047L93.9109 26.9932H99.1354L109 5.1781H103.776L100.012 13.4932Z" fill="#101010"/>
<path d="M91.0496 22.0195V17.9308H90.9178C90.0417 17.9308 89.6523 17.4765 89.6523 16.5679V0.206665H84.8496V16.8599C84.8496 20.105 86.7317 22.0195 89.9443 22.0195H91.0496Z" fill="#101010"/>
<path d="M77.3596 5.17786C75.9156 5.17786 73.9703 5.43751 72.9968 7.18982V5.17791H68.2266V22.0195H72.9968V12.1547C72.9968 10.0129 74.2623 8.87723 75.9822 8.87723C77.3775 8.87723 78.4808 9.91564 78.4808 11.8626V22.0195H83.251V11.0189C83.251 7.22227 80.702 5.17786 77.3596 5.17786Z" fill="#101010"/>
<path d="M40.66 18.1707C38.7455 18.1707 37.4475 17.1546 37.1878 14.6298H48.6428C48.6752 14.3219 48.6752 13.9216 48.6752 13.6137C48.6752 8.62556 45.3978 5.20776 40.6276 5.20776C35.7276 5.20776 32.3203 8.65635 32.3203 13.6137C32.3203 18.6634 35.7925 22.0196 40.8872 22.0196C44.4567 22.0196 47.4421 20.2645 48.6752 16.6928L44.6514 15.338C43.8401 17.3702 42.5421 18.1707 40.66 18.1707ZM40.6276 8.8103C42.0148 8.8103 43.3856 9.60768 43.8399 11.1419H37.3174C37.7393 9.63847 39.0456 8.8103 40.6276 8.8103Z" fill="#101010"/>
<path d="M58.6131 18.1707C56.6986 18.1707 55.4006 17.1546 55.141 14.6298H66.5959C66.6284 14.3219 66.6284 13.9216 66.6284 13.6137C66.6284 8.62556 63.3509 5.20776 58.5807 5.20776C53.6807 5.20776 50.2734 8.65635 50.2734 13.6137C50.2734 18.6634 53.7456 22.0196 58.8403 22.0196C62.4098 22.0196 65.3952 20.2645 66.6284 16.6928L62.6045 15.338C61.7933 17.3702 60.4953 18.1707 58.6131 18.1707ZM58.5807 8.8103C59.9679 8.8103 61.3388 9.60768 61.7931 11.1419H55.2706C55.6924 9.63847 56.9987 8.8103 58.5807 8.8103Z" fill="#101010"/>
<path d="M8.99573 26.9885C15.2344 26.9885 17.9497 24.9653 17.9497 21.9305C17.9497 19.049 15.2021 17.1178 9.96547 17.1178H8.99573C7.41182 17.1178 4.39616 17.1746 4.39616 16.2549C4.39616 15.2127 6.8623 15.3091 8.60783 15.3091C13.2626 15.3091 16.4627 13.5312 16.4627 10.619C16.4627 9.36218 15.9455 8.50385 14.9435 7.82945C16.0425 7.61487 17.1092 7.33898 18.0143 6.97112L16.6908 3.79004C14.5251 4.86295 11.7059 5.18469 8.92602 5.18469C4.49754 5.18469 1.27012 6.69523 1.27012 10.0979C1.27012 11.7532 2.04592 12.8261 3.33891 13.6538C1.46407 14.1749 0 15.274 0 16.9293C0 18.4314 1.27012 19.4475 2.69241 20.0606C0.979202 20.735 0.00946144 21.7773 0.00946144 23.218C0.00946144 25.1186 2.36916 26.9885 8.99573 26.9885ZM8.93108 11.9372C6.89462 11.9372 5.92488 11.2014 5.92488 10.0672C5.92488 8.93301 6.89462 8.13599 8.93108 8.13599C10.9352 8.13599 11.8403 8.93301 11.8403 10.0672C11.8403 11.2014 10.9352 11.9372 8.93108 11.9372ZM8.9634 23.7698C6.15115 23.7698 5.11676 23.2793 5.11676 22.3903C5.11676 21.5014 6.15115 21.0109 8.9634 21.0109C11.7757 21.0109 12.7777 21.5014 12.7777 22.3903C12.7777 23.2793 11.7757 23.7698 8.9634 23.7698Z" fill="#101010"/>
<path d="M24.3913 9.23487V13.679V22.0493H19.6211V5.17859H20.335C22.5752 5.17859 24.3913 6.99465 24.3913 9.23487Z" fill="#101010"/>
<path d="M27.2133 11.3081C28.3996 11.1751 31.4287 10.4518 32.9492 6.56497C31.363 5.06315 28.916 4.70935 26.9249 5.85514C25.2712 6.80676 24.3906 8.53961 24.3906 10.324V11.3374L26.3693 11.3377C26.6514 11.3387 26.9327 11.3396 27.2133 11.3081Z" fill="#2FCE65"/>
</g>
<defs>
<clipPath id="clip0_276_3256">
<rect width="109" height="27" fill="white"/>
</clipPath>
</defs>
</svg>
